<svg width="198" height="34" viewBox="0 0 198 34" fill="none" xmlns="http://www.w3.org/2000/svg">
<path d="M17 0L20.8167 11.7467L33.168 11.7467L23.1756 19.0066L26.9923 30.7533L17 23.4934L7.00765 30.7533L10.8244 19.0066L0.832039 11.7467L13.1833 11.7467L17 0Z" fill="#FFB800"/>
<path d="M58 0L61.8167 11.7467L74.168 11.7467L64.1756 19.0066L67.9923 30.7533L58 23.4934L48.0077 30.7533L51.8244 19.0066L41.832 11.7467L54.1833 11.7467L58 0Z" fill="#FFB800"/>
<path d="M99 0L102.817 11.7467L115.168 11.7467L105.176 19.0066L108.992 30.7533L99 23.4934L89.0077 30.7533L92.8244 19.0066L82.832 11.7467L95.1833 11.7467L99 0Z" fill="#FFB800"/>
<path d="M140 0L143.817 11.7467L156.168 11.7467L146.176 19.0066L149.992 30.7533L140 23.4934L130.008 30.7533L133.824 19.0066L123.832 11.7467L136.183 11.7467L140 0Z" fill="#FFB800"/>
<path d="M181 0L184.817 11.7467L197.168 11.7467L187.176 19.0066L190.992 30.7533L181 23.4934L171.008 30.7533L174.824 19.0066L164.832 11.7467L177.183 11.7467L181 0Z" fill="url(#paint0_linear_56_4)"/>
<defs>
<linearGradient id="paint0_linear_56_4" x1="164" y1="17" x2="198" y2="17" gradientUnits="userSpaceOnUse">
<stop offset="0.395" stop-color="#FFB800"/>
<stop offset="1" stop-color="white"/>
</linearGradient>
</defs>
</svg>
