<svg width="425" height="142" viewBox="0 0 425 142" fill="none" xmlns="http://www.w3.org/2000/svg">
<mask id="path-1-inside-1_25_74" fill="white">
<path d="M0.0721511 65.1311C-0.312449 72.6195 0.843436 80.1072 3.46831 87.1311C6.09318 94.1549 10.1312 100.566 15.3327 105.966C20.5341 111.367 26.7883 115.643 33.7085 118.531C40.6286 121.418 48.0676 122.854 55.5652 122.752C63.0627 122.649 70.4595 121.009 77.298 117.933C84.1365 114.858 90.2712 110.412 95.3227 104.87C100.374 99.3291 104.235 92.8103 106.667 85.7172C109.098 78.624 110.048 71.1075 109.459 63.6324L98.458 64.5001C98.9289 70.4704 98.1699 76.4737 96.228 82.1389C94.286 87.8041 91.2023 93.0106 87.1678 97.4364C83.1332 101.862 78.2335 105.413 72.7717 107.87C67.3099 110.326 61.4022 111.636 55.414 111.718C49.4258 111.8 43.4844 110.653 37.9574 108.347C32.4303 106.041 27.4352 102.625 23.2808 98.3117C19.1265 93.9981 15.9014 88.878 13.805 83.2682C11.7085 77.6583 10.7853 71.678 11.0925 65.6971L0.0721511 65.1311Z"/>
</mask>
<path d="M0.0721511 65.1311C-0.312449 72.6195 0.843436 80.1072 3.46831 87.1311C6.09318 94.1549 10.1312 100.566 15.3327 105.966C20.5341 111.367 26.7883 115.643 33.7085 118.531C40.6286 121.418 48.0676 122.854 55.5652 122.752C63.0627 122.649 70.4595 121.009 77.298 117.933C84.1365 114.858 90.2712 110.412 95.3227 104.87C100.374 99.3291 104.235 92.8103 106.667 85.7172C109.098 78.624 110.048 71.1075 109.459 63.6324L98.458 64.5001C98.9289 70.4704 98.1699 76.4737 96.228 82.1389C94.286 87.8041 91.2023 93.0106 87.1678 97.4364C83.1332 101.862 78.2335 105.413 72.7717 107.87C67.3099 110.326 61.4022 111.636 55.414 111.718C49.4258 111.8 43.4844 110.653 37.9574 108.347C32.4303 106.041 27.4352 102.625 23.2808 98.3117C19.1265 93.9981 15.9014 88.878 13.805 83.2682C11.7085 77.6583 10.7853 71.678 11.0925 65.6971L0.0721511 65.1311Z" fill="black" stroke="white" stroke-width="6" mask="url(#path-1-inside-1_25_74)"/>
<path d="M31.5984 89.6135C24.0623 84.6086 18.3311 77.3278 15.2492 68.8438C12.1672 60.3599 11.8976 51.1216 14.4801 42.4902C17.0626 33.8587 22.3605 26.2906 29.5932 20.901C36.826 15.5114 45.611 12.5854 54.6539 12.5541C63.6968 12.5228 72.5193 15.3878 79.8213 20.727C87.1233 26.0663 92.5188 33.5973 95.2126 42.2105C97.9064 50.8237 97.7561 60.0635 94.7839 68.5684C91.8117 77.0732 86.1748 84.3934 78.7037 89.4503L72.9881 81.079C78.6634 77.2377 82.9454 71.677 85.2032 65.2164C87.461 58.7559 87.5751 51.7371 85.5288 45.1942C83.4825 38.6514 79.384 32.9306 73.8371 28.8747C68.2903 24.8189 61.5885 22.6425 54.7192 22.6663C47.85 22.6901 41.1766 24.9128 35.6824 29.0069C30.1882 33.101 26.1637 38.8499 24.202 45.4067C22.2403 51.9634 22.4451 58.9811 24.7862 65.4257C27.1273 71.8704 31.4809 77.4011 37.2056 81.203L31.5984 89.6135Z" fill="#930000"/>
<rect x="52.3228" y="87.2524" width="5.606" height="51.6998" rx="2.803" fill="white"/>
<rect x="77.4795" y="136.34" width="5.606" height="45.6533" rx="2.803" transform="rotate(90.6301 77.4795 136.34)" fill="white"/>
<rect x="45.1406" y="44.4473" width="19.7544" height="56.0532" rx="9.87722" fill="#930000"/>
<path d="M164.496 82.016C166.096 83.552 165.328 86.432 163.216 86.944C161.744 87.328 160.016 89.568 158.864 90.528C156.432 92.512 154.128 94.752 152.336 97.44C152.272 97.568 151.568 98.656 150.992 99.488C151.248 101.024 149.136 102.624 147.792 101.152C146.384 99.68 146.128 96.992 145.552 95.072C142.608 87.136 143.248 78.368 140.88 70.368C139.536 66.592 143.696 64.672 146.448 62.624C148.624 61.024 150.8 59.424 152.976 57.824C154.448 56.8 156.496 54.688 158.416 54.88C158.864 54.944 158.672 55.456 158.48 55.712C158.48 55.776 158.352 55.776 158.352 55.712C155.92 57.824 145.744 65.696 143.312 68.576C146.192 76.896 146.96 86.56 149.712 95.072C152.08 91.104 154.896 87.904 158.416 84.896C154.512 82.016 150.48 77.856 152.336 73.056C152.784 71.84 154.192 71.328 155.216 72.288C158.16 75.68 161.104 79.072 164.496 82.016ZM191.926 73.632C201.974 81.696 184.438 92.32 178.486 97.184C174.902 99.552 173.302 94.688 173.302 91.808C172.598 85.536 166.518 79.136 168.95 72.928C169.526 71.456 183.798 56.8 183.862 62.752C186.038 66.72 188.982 70.304 191.926 73.632ZM178.742 92.576C196.918 74.976 186.806 81.44 182.454 63.2C165.494 80.288 175.478 73.696 178.742 92.576ZM218.299 66.848C218.171 67.488 217.979 68.128 217.787 68.768C218.235 69.024 217.979 69.472 217.595 69.6C215.163 78.752 211.643 87.392 208.699 96.352C209.275 97.504 210.043 101.152 207.739 99.616C205.499 105.056 205.435 113.76 202.107 117.6C198.971 111.904 195.899 103.136 193.147 96.352C195.579 95.136 199.867 105.568 201.211 108.128C202.171 103.84 204.091 99.616 205.563 95.648C198.331 73.632 192.571 75.424 217.147 68.832C217.531 68.384 217.851 66.72 218.299 66.848ZM207.163 91.424C209.979 84.256 213.051 77.088 216.443 70.24C212.667 72.736 205.691 75.68 201.659 76.384C203.387 80.352 206.011 87.136 207.163 91.424ZM241.453 62.56C243.949 66.464 229.165 116.896 229.357 94.432C224.749 92.064 221.549 87.84 219.117 83.104C214.188 77.024 233.069 67.104 238.061 65.248C238.701 63.968 239.789 61.664 241.453 62.56ZM233.837 78.368C234.797 75.616 235.757 72.864 236.589 70.112C231.085 73.632 226.541 78.432 221.677 82.656C223.917 85.856 226.669 88.992 229.997 90.976C231.213 86.752 232.365 82.528 233.837 78.368ZM272.371 99.808C272.562 100.64 271.795 101.472 270.835 101.216C265.907 99.936 262.067 94.752 258.611 91.36C256.371 89.184 254.131 87.008 251.891 84.832C250.227 83.424 248.883 80.672 247.155 79.776C246.003 85.152 244.915 90.528 243.955 95.968C243.635 97.184 244.403 101.728 242.035 100.576C239.794 98.592 239.922 94.368 240.37 91.744C242.611 79.776 245.491 67.616 250.419 56.48C250.611 56.224 250.867 56.096 251.123 56.032C251.123 55.712 251.379 55.328 251.827 55.328C254.771 55.712 257.267 58.208 259.123 60.192C261.683 62.56 264.115 65.632 267.379 67.04C267.955 67.168 268.467 67.68 268.659 68.256C269.235 69.728 267.443 71.584 265.907 70.432C260.723 73.12 255.347 75.488 250.163 78.176C256.307 83.424 262.003 89.12 268.083 94.496C269.747 96.032 271.795 97.568 272.371 99.808ZM250.227 66.272C249.331 69.6 248.627 72.928 247.859 76.32C252.403 72.608 257.01 70.304 262.515 67.68C258.931 64.48 256.435 60.064 252.403 57.184C252.723 60.064 250.931 63.456 250.227 66.272ZM298.172 77.536C302.716 81.44 281.788 80.352 279.1 80.992C283.132 84.64 287.356 89.504 292.732 91.68C294.204 92.384 298.492 94.816 295.996 96.16C286.78 96.352 282.236 84.96 274.556 82.528C272.956 82.144 273.212 79.2 274.62 78.688C277.308 77.216 295.676 62.304 295.1 67.232C288.956 70.752 285.82 74.08 279.228 78.176C285.5 77.472 291.772 76.896 298.172 77.536ZM322.016 63.52C322.848 63.968 322.592 65.312 321.76 65.504C316.832 70.176 311.584 75.744 306.272 80.16C309.536 85.28 311.072 91.488 313.696 96.928C314.592 98.976 312.672 101.344 310.496 100.128C305.056 95.904 305.184 87.52 302.304 81.696C298.912 78.304 309.024 71.904 311.008 70.304C314.592 68.32 317.6 62.496 322.016 63.52ZM343.989 73.632C354.037 81.696 336.501 92.32 330.549 97.184C326.965 99.552 325.365 94.688 325.365 91.808C324.661 85.536 318.581 79.136 321.013 72.928C321.589 71.456 335.861 56.8 335.925 62.752C338.101 66.72 341.045 70.304 343.989 73.632ZM330.805 92.576C348.981 74.976 338.869 81.44 334.517 63.2C317.556 80.288 327.541 73.696 330.805 92.576ZM378.415 62.56C385.775 65.184 358.511 74.656 355.823 75.936C354.479 80.032 355.695 99.872 349.999 97.696C347.759 87.264 351.727 72.16 354.927 62.048C359.215 61.856 356.207 69.728 356.207 72.48C362.927 67.68 370.735 65.12 378.415 62.56ZM388.227 96.16C390.659 97.44 388.419 100.768 386.243 99.296C383.875 101.856 382.403 99.552 383.811 96.8C380.611 92 377.731 87.264 373.315 83.616C372.803 84.064 372.547 83.296 372.355 82.912C358.787 81.76 389.635 68.32 392.963 68.384C394.179 63.008 396.419 57.824 397.955 52.576C404.611 48.48 389.059 91.296 387.843 95.52C388.227 95.904 388.867 96.416 388.227 96.16ZM385.347 91.872C387.267 86.944 388.995 81.952 390.531 76.896C391.235 74.656 391.875 72.352 392.515 70.048C386.883 74.336 380.611 77.28 374.595 80.992C379.523 82.592 381.763 88.416 385.347 91.872ZM416.174 79.584C418.862 84.768 402.03 94.752 400.11 102.624C399.342 103.904 397.678 103.2 397.549 101.92C396.59 93.152 404.59 87.264 410.222 81.76C407.79 80.288 394.285 71.968 399.79 69.6C411.694 62.176 424.11 59.488 404.078 71.456C407.918 74.4 412.333 76.64 416.174 79.584Z" fill="white"/>
</svg>
